<svg id="visual" viewBox="0 0 900 600" width="900" height="600" xmlns="http://www.w3.org/2000/svg" xmlns:xlink="http://www.w3.org/1999/xlink" version="1.1"><rect x="0" y="0" width="900" height="600" fill="#1e2839"></rect><path d="M0 279L37.5 292C75 305 150 331 225 335.2C300 339.3 375 321.7 450 320.2C525 318.7 600 333.3 675 328.5C750 323.7 825 299.3 862.5 287.2L900 275L900 601L862.5 601C825 601 750 601 675 601C600 601 525 601 450 601C375 601 300 601 225 601C150 601 75 601 37.5 601L0 601Z" fill="#ff0000" stroke-linecap="round" stroke-linejoin="miter"></path></svg>