<svg id="visual" viewBox="0 0 900 600" width="900" height="600" xmlns="http://www.w3.org/2000/svg" xmlns:xlink="http://www.w3.org/1999/xlink" version="1.1"><rect x="0" y="0" width="900" height="600" fill="#1e2839"></rect><path d="M0 318L18.8 312.2C37.7 306.3 75.3 294.7 112.8 286.7C150.3 278.7 187.7 274.3 225.2 285.5C262.7 296.7 300.3 323.3 337.8 329.3C375.3 335.3 412.7 320.7 450.2 320.8C487.7 321 525.3 336 562.8 333C600.3 330 637.7 309 675.2 293.2C712.7 277.3 750.3 266.7 787.8 262.3C825.3 258 862.7 260 881.3 261L900 262L900 0L881.3 0C862.7 0 825.3 0 787.8 0C750.3 0 712.7 0 675.2 0C637.7 0 600.3 0 562.8 0C525.3 0 487.7 0 450.2 0C412.7 0 375.3 0 337.8 0C300.3 0 262.7 0 225.2 0C187.7 0 150.3 0 112.8 0C75.3 0 37.7 0 18.8 0L0 0Z" fill="#c7a51a" stroke-linecap="round" stroke-linejoin="miter"></path></svg>