<svg id="visual" viewBox="0 0 900 600" width="900" height="600" xmlns="http://www.w3.org/2000/svg" xmlns:xlink="http://www.w3.org/1999/xlink" version="1.1"><rect x="0" y="0" width="900" height="600" fill="#1e2839"></rect><g fill="none" stroke="#c7a51a" stroke-width="2"><circle r="79" cx="599" cy="136"></circle><circle r="34" cx="64" cy="151"></circle><circle r="61" cx="75" cy="496"></circle><circle r="50" cx="491" cy="423"></circle><circle r="38" cx="763" cy="91"></circle><circle r="58" cx="686" cy="487"></circle><circle r="53" cx="287" cy="381"></circle><circle r="49" cx="828" cy="390"></circle><circle r="40" cx="388" cy="191"></circle><circle r="67" cx="532" cy="593"></circle><circle r="59" cx="221" cy="573"></circle><circle r="47" cx="722" cy="261"></circle><circle r="43" cx="46" cy="311"></circle><circle r="72" cx="270" cy="47"></circle><circle r="33" cx="224" cy="222"></circle><circle r="66" cx="478" cy="24"></circle><circle r="66" cx="853" cy="552"></circle><circle r="51" cx="893" cy="190"></circle></g></svg>